<svg xmlns="http://www.w3.org/2000/svg"  viewBox="0 0 60 60" width="32px" height="32px"><path fill="#333" d="M47.90967,37.35156c-1.16113-1.16113-3.18555-1.16113-4.3457,0.00098l-5.68555,5.69336	c-0.37793,0.37793-1.03662,0.37744-1.41455,0.00049L16.9624,23.5459c-0.18896-0.18896-0.29297-0.44043-0.29297-0.70752	s0.104-0.51807,0.29297-0.70703l5.7002-5.7002c1.18945-1.20459,1.18115-3.14893-0.01416-4.32959L11.44775,0.90137	c-1.15771-1.1582-3.16357-1.1665-4.33252-0.01123L4.68164,3.31348c-3.88867,3.90967-5.49512,9.44385-4.29785,14.80078	c4.42334,19.99609,21.48145,37.06201,41.48047,41.50049C43.01074,59.87061,44.18604,60,45.35791,60	c4.28174,0,8.30273-1.66748,11.32129-4.69434l2.42041-2.41992c0.58301-0.58301,0.90283-1.35742,0.90039-2.18018	c-0.00244-0.81787-0.32373-1.58447-0.8999-2.1543L47.90967,37.35156z M57.68555,51.47168l-2.42139,2.4209	C52.62256,56.54102,49.10449,58,45.35791,58c-1.02539,0-2.05469-0.11328-3.05908-0.3374	C23.03076,53.38623,6.59814,36.9458,2.33643,17.68018c-1.04834-4.68945,0.35889-9.5332,3.75977-12.95313l2.42725-2.41699	c0.20264-0.2002,0.46973-0.31055,0.75244-0.31055c0.28516,0,0.5542,0.1123,0.75781,0.31592l11.20508,11.20459	c0.41504,0.41016,0.41553,1.08594,0.00537,1.50146l-5.6958,5.69531c-0.56689,0.56689-0.87891,1.32031-0.87891,2.12158	s0.31201,1.55469,0.87891,2.12158L35.0498,44.46045c0.56641,0.56641,1.31982,0.87842,2.12109,0.87842	c0.80176,0,1.55566-0.3125,2.12256-0.87988l5.68555-5.69336c0.40625-0.40527,1.1123-0.4043,1.51563,0l11.19531,11.2041	c0.19922,0.19678,0.30957,0.46045,0.31006,0.7417C58.00098,50.99805,57.88916,51.26807,57.68555,51.47168z"/></svg>