<svg width="907" height="591" viewBox="0 0 907 591" fill="none" xmlns="http://www.w3.org/2000/svg">
<g clip-path="url(#clip0_16_1849)">
<path d="M103.431 291.367C99.6495 291.367 96.6506 294.352 96.6506 298.116V376.766C96.6506 378.583 97.3026 380.27 98.6064 381.568L119.338 402.204H219.215L239.946 381.568C241.25 380.27 241.902 378.583 241.902 376.766V298.116C241.902 294.352 238.903 291.367 235.122 291.367H103.431Z" fill="#08D4F8"/>
<path d="M228.081 410.121C228.081 405.838 224.56 402.204 220.127 402.204H119.208C114.905 402.204 111.254 405.709 111.254 410.121H228.081ZM119.599 559.765V410.121H233.427C236.295 410.121 238.642 412.457 238.642 415.313V554.703C238.642 557.559 236.295 559.895 233.427 559.895H119.599V559.765Z" fill="#142664"/>
<path d="M51.9279 559.765C49.0594 559.765 46.7124 557.429 46.7124 554.574V469.823C46.7124 468.395 47.234 467.097 48.277 466.189L103.17 411.549C104.083 410.64 105.517 409.991 106.821 409.991H203.568L147.632 465.67C146.328 466.968 145.546 468.785 145.546 470.602V559.765H51.9279Z" fill="#3376BD"/>
<path d="M214.129 450.095C216.434 450.095 218.302 448.236 218.302 445.942C218.302 443.649 216.434 441.789 214.129 441.789C211.825 441.789 209.957 443.649 209.957 445.942C209.957 448.236 211.825 450.095 214.129 450.095Z" fill="#08D4F8"/>
<path d="M229.646 452.432V427.772C229.646 423.359 226.125 419.855 221.692 419.855H212.043C209.957 419.855 207.871 420.634 206.437 422.191L189.356 439.193C187.922 440.621 187.009 442.698 187.009 444.774V452.432C187.009 454.508 187.791 456.585 189.356 458.012C190.79 459.44 192.876 460.349 194.963 460.349H221.692C223.778 460.349 225.864 459.57 227.299 458.012C228.863 456.585 229.646 454.638 229.646 452.432ZM224.169 452.432C224.169 453.081 223.908 453.729 223.517 454.119C223.126 454.508 222.474 454.768 221.822 454.768H195.093C194.441 454.768 193.789 454.508 193.398 454.119C193.007 453.729 192.746 453.081 192.746 452.432V444.774C192.746 444.125 193.007 443.476 193.398 443.087L210.479 426.085C210.87 425.696 211.522 425.436 212.174 425.436H221.822C223.126 425.436 224.3 426.474 224.3 427.902L224.169 452.432Z" fill="#08D4F8"/>
<path d="M108.777 537.052H51.6671C50.1024 537.052 48.929 535.884 48.929 534.327C48.929 532.769 50.1024 531.601 51.6671 531.601H111.515C113.079 531.601 114.253 532.769 114.253 534.327V557.169C114.253 558.727 113.079 559.895 111.515 559.895C109.95 559.895 108.777 558.727 108.777 557.169V537.052ZM123.641 487.474V478.648L99.9103 455.027C98.8672 453.989 98.8672 452.172 99.9103 451.134C100.953 450.095 102.779 450.095 103.822 451.134L128.335 475.534C128.856 476.053 129.117 476.702 129.117 477.48V506.942L147.502 525.242C148.545 526.28 148.545 528.097 147.502 529.135C146.459 530.174 144.633 530.174 143.59 529.135L124.553 509.927C124.032 509.408 123.771 508.759 123.771 507.98V492.925H112.819L99.7799 505.904C99.2584 506.423 98.6065 506.682 97.8241 506.682H51.6671C50.1024 506.682 48.929 505.514 48.929 503.957C48.929 502.399 50.1024 501.231 51.6671 501.231H96.5203L109.559 488.253C110.081 487.734 110.732 487.474 111.515 487.474H123.641Z" fill="#142664"/>
<path d="M77.7446 455.806C76.1799 455.806 74.8761 454.898 74.2241 453.47C73.5722 452.042 73.9633 450.485 75.0064 449.317L105.908 418.557C106.56 417.908 107.603 417.389 108.646 417.389C117.252 417.389 158.585 417.389 177.23 417.519C178.795 417.519 180.098 418.428 180.75 419.855C181.402 421.283 181.011 422.84 179.968 424.008L149.066 454.768C148.414 455.417 147.371 455.936 146.328 455.936H77.7446V455.806Z" fill="black"/>
<path d="M101.866 449.966C101.214 449.966 100.562 449.576 100.302 448.927C100.041 448.278 100.171 447.63 100.693 447.11L118.165 429.719C118.425 429.459 118.947 429.2 119.338 429.2H147.111C147.762 429.2 148.414 429.589 148.675 430.238C148.936 430.887 148.806 431.536 148.284 432.055L130.943 449.317C130.682 449.576 130.16 449.836 129.769 449.836C126.118 449.966 109.559 449.966 101.866 449.966ZM144.764 450.355L160.41 434.781C161.453 433.742 161.453 431.925 160.41 430.887C159.367 429.849 157.541 429.849 156.498 430.887L140.852 446.461C139.809 447.5 139.809 449.317 140.852 450.355C141.895 451.393 143.59 451.393 144.764 450.355Z" fill="#142664"/>
<path d="M160.41 426.864C159.758 426.864 159.106 426.474 158.845 425.825C158.585 425.176 158.715 424.528 159.237 424.008L161.975 421.283C162.235 421.023 162.757 420.764 163.148 420.764H170.841C171.493 420.764 172.145 421.153 172.406 421.802C172.666 422.451 172.536 423.1 172.014 423.619L169.276 426.345C169.016 426.604 168.494 426.864 168.103 426.864H160.41Z" fill="#08D4F8"/>
<path d="M143.068 426.864C142.417 426.864 141.765 426.474 141.504 425.825C141.243 425.176 141.373 424.528 141.895 424.008L144.633 421.283C144.894 421.023 145.415 420.764 145.807 420.764H153.499C154.151 420.764 154.803 421.153 155.064 421.802C155.325 422.451 155.194 423.1 154.673 423.619L151.935 426.345C151.674 426.604 151.152 426.864 150.761 426.864H143.068Z" fill="#3376BD"/>
<path d="M125.988 426.864C125.336 426.864 124.684 426.474 124.423 425.825C124.162 425.176 124.293 424.528 124.814 424.008L127.552 421.283C127.813 421.023 128.335 420.764 128.726 420.764H136.419C137.071 420.764 137.723 421.153 137.983 421.802C138.244 422.451 138.114 423.1 137.592 423.619L134.854 426.345C134.593 426.604 134.072 426.864 133.681 426.864H125.988ZM100.953 435.559C103.3 435.559 104.083 436.857 102.518 438.285C100.953 439.842 97.8242 441.01 95.3468 441.01C92.8695 441.01 92.2175 439.842 93.7822 438.285C95.3468 436.857 98.4761 435.559 100.953 435.559ZM108.646 428.032C110.993 428.032 111.776 429.2 110.211 430.757C108.646 432.315 105.517 433.483 103.04 433.483C100.693 433.483 99.9104 432.315 101.475 430.757C103.04 429.2 106.169 428.032 108.646 428.032Z" fill="#142664"/>
<path d="M115.948 420.634C118.295 420.634 119.077 421.802 117.513 423.359C115.948 424.917 112.819 426.085 110.341 426.085C107.864 426.085 107.212 424.917 108.777 423.359C110.341 421.932 113.471 420.634 115.948 420.634Z" fill="#08D4F8"/>
<path d="M164.582 479.687C164.582 479.038 164.322 478.389 163.8 478C163.279 477.48 162.757 477.221 162.105 477.221H156.238C155.586 477.221 154.934 477.48 154.543 478C154.021 478.519 153.76 479.038 153.76 479.687V487.474C153.76 488.123 154.021 488.772 154.543 489.161C155.064 489.68 155.586 489.94 156.238 489.94H162.105C162.757 489.94 163.409 489.68 163.8 489.161C164.322 488.642 164.582 488.123 164.582 487.474V479.687ZM172.014 469.563C172.014 468.914 171.754 468.266 171.363 467.876C170.971 467.487 170.319 467.227 169.667 467.227C169.016 467.227 168.364 467.487 167.972 467.876C167.581 468.266 167.321 468.914 167.321 469.563V477.48C167.321 478.129 167.581 478.778 167.972 479.168C168.364 479.557 169.016 479.817 169.667 479.817C170.319 479.817 170.971 479.557 171.363 479.168C171.754 478.778 172.014 478.129 172.014 477.48V469.563ZM219.867 479.687C219.867 479.038 219.606 478.389 219.215 478C218.823 477.61 218.172 477.351 217.52 477.351C216.868 477.351 216.216 477.61 215.825 478C215.433 478.389 215.173 479.038 215.173 479.687V487.604C215.173 488.253 215.433 488.902 215.825 489.291C216.216 489.68 216.868 489.94 217.52 489.94C218.172 489.94 218.823 489.68 219.215 489.291C219.606 488.902 219.867 488.253 219.867 487.604V479.687ZM229.776 479.687C229.776 479.038 229.515 478.389 228.994 478C228.472 477.48 227.951 477.221 227.299 477.221H224.952C224.3 477.221 223.648 477.48 223.257 478C222.735 478.519 222.474 479.038 222.474 479.687V487.474C222.474 488.123 222.735 488.772 223.257 489.161C223.778 489.68 224.3 489.94 224.952 489.94H227.299C227.951 489.94 228.602 489.68 228.994 489.161C229.515 488.642 229.776 488.123 229.776 487.474V479.687ZM212.434 469.563C212.434 468.914 212.174 468.266 211.652 467.876C211.131 467.357 210.609 467.097 209.957 467.097H204.35C203.699 467.097 203.047 467.357 202.655 467.876C202.134 468.395 201.873 468.914 201.873 469.563V477.351C201.873 478 202.134 478.648 202.655 479.038C203.177 479.557 203.699 479.817 204.35 479.817H209.957C210.609 479.817 211.261 479.557 211.652 479.038C212.174 478.519 212.434 478 212.434 477.351V469.563ZM199.265 479.687C199.265 479.038 199.005 478.389 198.483 478C197.961 477.48 197.44 477.221 196.788 477.221H177.1C176.448 477.221 175.796 477.48 175.405 478C174.883 478.519 174.622 479.038 174.622 479.687V487.474C174.622 488.123 174.883 488.772 175.405 489.161C175.926 489.68 176.448 489.94 177.1 489.94H196.788C197.44 489.94 198.092 489.68 198.483 489.161C199.005 488.642 199.265 488.123 199.265 487.474V479.687Z" fill="black"/>
<path d="M168.233 524.333L193.007 499.674C193.528 499.155 194.18 498.895 194.963 498.895H234.991C236.556 498.895 237.73 500.063 237.73 501.621C237.73 503.178 236.556 504.346 234.991 504.346H196.136L172.275 528.097V556.91C172.275 558.467 171.102 559.635 169.537 559.635C167.972 559.635 166.799 558.467 166.799 556.91V529.784H148.675C147.111 529.784 145.937 528.616 145.937 527.059C145.937 525.501 147.111 524.333 148.675 524.333H168.233ZM242.424 409.343C242.424 409.343 244.119 408.304 246.466 406.877C247.639 406.098 249.073 405.189 250.377 404.151C251.159 403.632 251.811 402.983 252.594 402.334C255.332 399.998 257.418 397.792 257.418 397.792C258.331 397.143 258.461 395.845 257.809 394.936C257.157 394.028 255.853 393.898 254.941 394.547C254.941 394.547 252.333 396.104 249.334 398.051C248.552 398.57 247.769 399.089 246.987 399.738C245.683 400.777 244.51 401.815 243.336 402.853C241.25 404.67 239.816 406.098 239.816 406.098C238.903 406.747 238.773 408.045 239.425 408.953C240.207 409.862 241.511 409.991 242.424 409.343ZM246.596 416.74C246.596 416.74 247.509 416.74 248.813 416.481C249.464 416.351 250.247 416.221 250.899 415.962C251.29 415.832 251.681 415.572 252.072 415.443C253.637 414.664 254.81 413.885 254.81 413.885C255.853 413.496 256.375 412.328 255.984 411.289C255.593 410.251 254.419 409.732 253.376 410.121C253.376 410.121 251.942 410.251 250.247 410.64C249.856 410.77 249.334 410.77 248.943 411.03C248.161 411.289 247.509 411.679 246.987 411.938C245.814 412.587 245.031 413.106 245.031 413.106C243.988 413.496 243.467 414.664 243.858 415.702C244.249 416.74 245.553 417.13 246.596 416.74ZM232.775 404.151L249.856 387.149C251.681 385.332 252.594 382.996 252.594 380.4V290.718C252.594 288.252 251.551 285.786 249.856 283.969C248.03 282.152 245.683 281.243 243.076 281.243H95.4772C92.9999 281.243 90.5225 282.282 88.6971 283.969C86.8717 285.786 85.959 288.122 85.959 290.718V380.4C85.959 382.866 87.0021 385.332 88.6971 387.149L105.778 404.151C106.821 405.189 108.646 405.189 109.689 404.151C110.733 403.113 110.733 401.296 109.689 400.257L92.6087 383.255C91.8264 382.477 91.4352 381.438 91.4352 380.4V290.718C91.4352 289.68 91.8264 288.641 92.6087 287.863C93.3911 287.084 94.4341 286.694 95.4772 286.694H243.206C244.249 286.694 245.292 287.084 246.074 287.863C246.857 288.641 247.248 289.68 247.248 290.718V380.4C247.248 381.438 246.857 382.477 246.074 383.255L228.994 400.257C227.951 401.296 227.951 403.113 228.994 404.151C230.037 405.189 231.732 405.189 232.775 404.151Z" fill="#08D4F8"/>
</g>
<g clip-path="url(#clip1_16_1849)">
<path d="M51.8636 393.389H85.0177V415.581C85.0177 420.123 81.2911 423.886 76.7935 423.886H74.0949V424.925C74.0949 426.352 72.9383 427.39 71.6533 427.39H54.4337C53.0202 427.39 51.9922 426.222 51.9922 424.925C51.8636 417.008 51.8636 393.389 51.8636 393.389Z" fill="#3376BD"/>
<path d="M39.6557 559.374C39.6557 559.893 39.9127 560.412 40.1697 560.672C40.5552 561.061 40.9407 561.191 41.4548 561.191H58.8028C59.5739 561.191 60.2164 560.672 60.2164 559.893C60.0879 558.465 59.5739 555.87 56.8753 553.274C56.2327 552.625 55.4617 552.366 54.5622 552.366H41.8403C40.5552 552.366 39.3987 553.404 39.3987 554.832C39.6557 556.129 39.6557 557.946 39.6557 559.374ZM71.9103 559.374C71.9103 559.893 72.1673 560.412 72.4243 560.672C72.8098 561.061 73.1953 561.191 73.7093 561.191H91.0574C91.8284 561.191 92.471 560.672 92.471 559.893C92.3424 558.465 91.8284 555.87 89.1298 553.274C88.4873 552.625 87.7163 552.366 86.8168 552.366H74.0948C72.8098 552.366 71.6533 553.404 71.6533 554.832C71.9103 556.129 71.9103 557.946 71.9103 559.374Z" fill="#08D4F8"/>
<path d="M90.4149 485.531C90.4149 485.531 89.1298 537.312 88.8728 549.641C88.8728 551.068 87.7163 552.236 86.1742 552.236H73.5808C72.1673 552.236 71.0107 551.068 70.8822 549.641C70.4967 540.167 69.2117 507.982 69.2117 507.982V507.074C68.8261 503.44 58.6743 503.57 58.4173 507.074V507.722L56.4897 552.106H38.8847L37.5996 485.531H90.4149Z" fill="#142664"/>
<path d="M30.0179 435.307C30.2749 434.788 30.6604 434.139 31.3029 433.49C42.4828 422.199 86.0457 422.069 94.27 433.36V433.49C100.31 443.612 104.807 456.071 114.06 445.3C119.842 438.681 129.352 447.765 124.726 454.254C119.714 461.262 102.88 474.37 90.9289 465.415L90.2864 490.203C90.2864 492.279 88.6158 493.836 86.5598 493.836H40.9407C38.8847 493.836 37.2141 492.149 37.2141 490.203L36.5716 463.598C34.5155 461.522 32.7165 458.667 31.1744 454.903C31.4314 454.773 26.0342 442.055 30.0179 435.307Z" fill="#08D4F8"/>
<path d="M89.9009 464.117C89.9009 464.117 88.6159 463.079 86.9453 461.262C86.1743 460.354 85.2748 459.316 84.3753 458.018C83.8612 457.369 83.4757 456.72 82.9617 456.071C81.9337 454.514 80.9056 452.956 80.2631 450.88C80.0061 449.842 78.8496 449.193 77.8215 449.452C76.7935 449.712 76.151 450.88 76.408 451.918C76.7935 454.514 77.5645 456.72 78.4641 458.667C78.9781 459.575 79.4921 460.484 80.0061 461.262C81.1626 462.82 82.4477 463.988 83.6042 464.896C86.0458 466.843 87.9734 467.621 87.9734 467.621C89.0014 468.14 90.158 467.751 90.672 466.713C91.3145 465.934 90.929 464.636 89.9009 464.117Z" fill="#142664"/>
<path d="M118.814 439.589C120.742 437.383 124.726 432.452 126.653 433.36C132.179 436.085 133.335 443.223 125.24 453.605C118.814 461.911 115.473 444.132 115.473 444.132C114.702 441.017 115.473 438.94 116.63 438.162C117.529 437.513 118.557 437.902 118.814 439.589Z" fill="#3376BD"/>
<path d="M58.2888 383.655C63.686 384.823 64.971 380.8 70.1112 379.632L70.6252 379.502C71.0107 379.373 71.5247 379.373 72.0388 379.373C72.8098 379.373 73.7093 379.502 74.3518 379.762C74.9944 380.022 75.7654 379.762 76.2794 379.243C77.95 377.166 81.9336 374.701 84.7607 374.571C92.4709 374.311 95.8121 378.594 95.8121 385.213C95.8121 390.404 88.4873 396.114 83.3471 396.114H82.5761C77.4359 396.244 76.9219 402.343 76.9219 405.458C76.9219 408.832 72.6813 408.702 72.6813 405.458C72.6813 402.213 68.4406 400.786 68.4406 405.458C68.4406 410.13 66.3846 417.657 56.7467 417.787C45.0529 417.917 44.0248 399.488 45.8239 396.114C46.2094 395.205 46.8519 394.297 47.6229 393.648C48.2655 393.129 48.651 392.221 48.5225 391.312C48.2655 387.549 52.1206 382.747 58.2888 383.655ZM37.2141 458.667C37.2141 458.667 37.4711 457.888 37.5996 456.85C37.7281 456.331 37.7281 455.682 37.7281 455.033C37.7281 454.644 37.5996 454.254 37.5996 453.995C37.3426 452.567 36.9571 451.529 36.9571 451.529C36.9571 450.361 35.9291 449.582 34.901 449.582C33.7445 449.582 32.9735 450.62 32.9735 451.659C32.9735 451.659 32.7164 452.827 32.4594 454.254C32.4594 454.644 32.3309 455.033 32.3309 455.292C32.3309 455.941 32.4594 456.59 32.5879 457.109C32.8449 458.148 33.102 458.926 33.102 458.926C33.102 460.094 34.13 460.873 35.158 460.873C36.3146 460.743 37.2141 459.705 37.2141 458.667Z" fill="#142664"/>
</g>
<g clip-path="url(#clip2_16_1849)">
<path d="M155.708 304.459C155.708 300.957 152.84 298.092 149.335 298.092H111.476C107.971 298.092 105.103 300.957 105.103 304.459V331.902C105.103 335.404 107.971 338.27 111.476 338.27H149.335C152.84 338.27 155.708 335.404 155.708 331.902V304.459Z" fill="black"/>
</g>
<g clip-path="url(#clip3_16_1849)">
<path d="M134.947 320.344C134.947 319.599 134.646 318.887 134.143 318.346C133.608 317.804 132.904 317.533 132.168 317.533H111.775C111.038 317.533 110.335 317.838 109.799 318.346C109.264 318.887 108.996 319.599 108.996 320.344V328.979C108.996 329.724 109.297 330.435 109.799 330.977C110.335 331.519 111.038 331.789 111.775 331.789H132.168C132.904 331.789 133.608 331.485 134.143 330.977C134.679 330.435 134.947 329.724 134.947 328.979V320.344Z" fill="#08D4F8"/>
</g>
<g clip-path="url(#clip4_16_1849)">
<path d="M163.539 353.792H195.855C197.448 353.792 198.927 354.102 200.065 354.568C201.203 355.085 201.772 355.758 201.772 356.482V376.405C201.772 377.129 201.089 377.802 200.065 378.319C198.927 378.837 197.448 379.095 195.855 379.095H127.24C125.647 379.095 124.167 378.785 123.029 378.319C121.892 377.802 121.323 377.129 121.323 376.405V356.482C121.323 355.758 122.005 355.085 123.029 354.568C124.167 354.05 125.647 353.792 127.24 353.792H159.101V349.652C159.101 349.393 159.328 349.135 159.783 348.928L195.969 332.472V324.348C195.969 323.779 196.993 323.365 198.131 323.365C199.382 323.365 200.293 323.831 200.293 324.348V332.886C200.293 333.145 200.065 333.404 199.61 333.611L163.425 350.066V353.792H163.539Z" fill="#142664"/>
</g>
<g clip-path="url(#clip5_16_1849)">
<path d="M278.977 545.638C278.977 540.612 274.74 536.566 269.476 536.566H202.839C197.575 536.566 193.338 540.612 193.338 545.638C193.338 550.665 197.575 554.71 202.839 554.71H269.476C274.74 554.71 278.977 550.665 278.977 545.638Z" fill="#08D4F8"/>
<path d="M212.468 536.566C209.13 538.405 206.819 541.715 206.819 545.638C206.819 549.561 209.13 552.871 212.468 554.71H204.508C202.582 552.136 201.427 549.071 201.427 545.638C201.427 542.205 202.582 539.14 204.508 536.566H212.468ZM227.619 536.566C224.281 538.405 221.97 541.715 221.97 545.638C221.97 549.561 224.281 552.871 227.619 554.71H219.659C217.733 552.136 216.577 549.071 216.577 545.638C216.577 542.205 217.733 539.14 219.659 536.566H227.619ZM242.77 536.566C239.431 538.405 237.12 541.715 237.12 545.638C237.12 549.561 239.431 552.871 242.77 554.71H234.809C232.883 552.136 231.728 549.071 231.728 545.638C231.728 542.205 232.883 539.14 234.809 536.566H242.77ZM257.92 536.566C254.582 538.405 252.271 541.715 252.271 545.638C252.271 549.561 254.582 552.871 257.92 554.71H249.831C247.906 552.136 246.75 549.071 246.75 545.638C246.75 542.205 247.906 539.14 249.831 536.566H257.92Z" fill="#142664"/>
</g>
<g clip-path="url(#clip6_16_1849)">
<path d="M270.814 522.285H201.376C199.044 522.285 197.23 523.997 197.23 526.197C197.23 528.398 199.044 530.11 201.376 530.11H270.814C273.145 530.11 274.959 528.398 274.959 526.197C274.959 524.119 273.145 522.285 270.814 522.285Z" fill="#3376BD"/>
<path d="M270.814 519.717H260.709C256.952 519.717 253.843 522.652 253.843 526.197C253.843 529.743 256.952 532.678 260.709 532.678H270.814C274.57 532.678 277.68 529.743 277.68 526.197C277.68 522.652 274.7 519.717 270.814 519.717Z" fill="#142664"/>
</g>
<g clip-path="url(#clip7_16_1849)">
<path d="M845.022 469.068C845.022 459.494 837.248 451.86 827.79 451.86H308.621C299.033 451.86 291.389 459.623 291.389 469.068V515.775H845.022V469.068Z" fill="black"/>
<path d="M847.743 503.354V469.068C847.743 458.071 838.803 449.143 827.79 449.143H308.621C297.608 449.143 288.668 458.071 288.668 469.068V503.354C288.668 504.907 289.834 506.072 291.389 506.072C292.943 506.072 294.109 504.907 294.109 503.354V469.068C294.109 461.046 300.588 454.577 308.621 454.577H827.79C835.823 454.577 842.301 461.046 842.301 469.068V503.354C842.301 504.907 843.467 506.072 845.022 506.072C846.577 506.072 847.743 504.907 847.743 503.354ZM403.592 310.962C403.592 313.809 405.924 316.138 408.775 316.138H424.971C427.821 316.138 430.153 313.809 430.153 310.962V306.305C430.153 304.105 428.339 302.423 426.266 302.423C424.064 302.423 422.379 300.612 422.379 298.542V283.663C422.379 280.816 420.047 278.487 417.197 278.487H408.905C406.054 278.487 403.722 280.816 403.722 283.663C403.592 290.779 403.592 303.846 403.592 310.962ZM532.251 404.118C532.251 401.271 529.919 398.943 527.068 398.943H516.962C514.112 398.943 511.779 401.271 511.779 404.118V410.07C511.779 410.846 512.039 411.493 512.557 412.01C513.075 412.528 513.853 412.787 514.5 412.787C515.278 412.787 515.926 413.045 516.444 413.563C516.962 414.08 517.221 414.857 517.221 415.504V420.679C517.221 423.525 519.553 425.854 522.404 425.854H526.809C529.66 425.854 531.992 423.525 531.992 420.679C532.251 416.151 532.251 409.034 532.251 404.118ZM670.497 352.753C670.497 349.907 668.165 347.578 665.315 347.578H639.142C636.292 347.578 633.96 349.907 633.96 352.753V367.373C633.96 370.22 636.292 372.549 639.142 372.549H643.029C645.88 372.549 648.212 374.877 648.212 377.724V420.938C648.212 422.361 648.73 423.655 649.767 424.56C650.803 425.595 652.099 426.113 653.395 426.113H665.315C666.74 426.113 668.035 425.595 668.942 424.56C669.979 423.525 670.497 422.232 670.497 420.938V352.753Z" fill="#142664"/>
<path d="M830.64 235.92C830.64 237.344 830.122 238.637 829.085 239.672C828.049 240.707 826.753 241.225 825.328 241.225H797.86C796.435 241.225 795.139 240.707 794.103 239.672C793.066 238.637 792.548 237.344 792.548 235.92V230.227C792.548 228.804 792.03 227.51 790.993 226.475C789.957 225.44 788.661 224.923 787.236 224.923H781.405C778.425 224.923 776.093 222.594 776.093 219.618V217.16C776.093 214.184 773.761 211.855 770.781 211.855H724.655C721.805 211.855 719.343 214.184 719.343 217.16V261.021C719.343 263.996 717.011 266.325 714.031 266.325H708.589C705.609 266.325 703.277 263.996 703.277 261.021V254.422C703.277 251.576 700.945 249.117 697.965 249.117H673.736C672.311 249.117 671.015 248.6 669.979 247.565C668.942 246.53 668.424 245.236 668.424 243.813V239.543C668.424 238.12 667.906 236.826 666.869 235.791C665.833 234.756 664.537 234.238 663.112 234.238H639.661C636.81 234.238 634.348 236.567 634.348 239.543V268.913C634.348 270.336 633.83 271.63 632.794 272.665C631.757 273.7 630.461 274.218 629.036 274.218H610.249C608.824 274.218 607.528 273.7 606.492 272.665C605.455 271.63 604.937 270.336 604.937 268.913V226.734C604.937 223.888 602.605 221.429 599.625 221.429H587.575C584.595 221.429 582.263 223.758 582.263 226.734V239.026C582.263 241.872 579.931 244.33 576.951 244.33H563.606C560.626 244.33 558.293 242.001 558.293 239.026V208.621C558.293 207.197 557.775 205.904 556.739 204.868C555.702 203.833 554.406 203.316 552.981 203.316H530.826C529.4 203.316 528.105 203.833 527.068 204.868C526.032 205.904 525.513 207.197 525.513 208.621V271.759C525.513 273.183 524.995 274.476 523.959 275.511C522.922 276.547 521.626 277.064 520.201 277.064H477.445C474.594 277.064 472.132 274.735 472.132 271.759V263.091C472.132 260.115 469.8 257.786 466.82 257.786H433.263C431.838 257.786 430.542 257.268 429.505 256.233C428.469 255.198 427.951 253.905 427.951 252.481V249.247C427.951 247.824 427.432 246.53 426.396 245.495C425.359 244.46 424.064 243.942 422.638 243.942H399.576C398.15 243.942 396.855 243.425 395.818 242.389C394.782 241.354 394.264 240.061 394.264 238.637V226.605C394.264 225.182 393.745 223.888 392.709 222.853C391.672 221.818 390.377 221.3 388.951 221.3H378.068C375.217 221.3 372.756 223.629 372.756 226.605V261.15C372.756 263.996 370.423 266.455 367.443 266.455H359.799C356.949 266.455 354.487 268.784 354.487 271.759V313.162C354.487 316.138 352.155 318.467 349.175 318.467H325.853C324.428 318.467 323.132 317.949 322.096 316.914C321.059 315.879 320.541 314.585 320.541 313.162V298.153C320.541 295.307 318.209 292.849 315.229 292.849H310.305C308.88 292.849 307.584 292.331 306.548 291.296C305.511 290.261 304.993 288.967 304.993 287.544V126.98H829.344L830.64 235.92Z" fill="#08D4F8"/>
<path d="M648.212 234.368C659.095 199.693 691.487 174.464 729.838 174.464C770.651 174.464 804.727 203.057 813.278 241.225H797.86C796.435 241.225 795.139 240.708 794.103 239.672C793.066 238.637 792.548 237.344 792.548 235.92V230.228C792.548 228.804 792.03 227.51 790.993 226.475C789.957 225.44 788.661 224.923 787.236 224.923H781.405C778.425 224.923 776.093 222.594 776.093 219.618V217.16C776.093 214.184 773.761 211.855 770.781 211.855H724.656C721.805 211.855 719.343 214.184 719.343 217.16V261.021C719.343 263.996 717.011 266.325 714.031 266.325H708.589C705.609 266.325 703.277 263.996 703.277 261.021V254.422C703.277 251.576 700.945 249.117 697.965 249.117H673.736C672.311 249.117 671.015 248.6 669.979 247.565C668.942 246.53 668.424 245.236 668.424 243.813V239.543C668.424 238.12 667.906 236.826 666.869 235.791C665.833 234.756 664.537 234.238 663.112 234.238L648.212 234.368Z" fill="#142664"/>
<path d="M669.979 247.177L744.09 159.067C746.163 156.738 749.273 155.703 752.383 156.479C755.363 157.256 757.695 159.714 758.213 162.819L766.894 211.855H724.915C722.064 211.855 719.602 214.184 719.602 217.16V261.021C719.602 263.996 717.27 266.325 714.29 266.325H708.849C705.869 266.325 703.536 263.996 703.536 261.021V254.422C703.536 251.576 701.204 249.117 698.224 249.117H673.995C672.57 249.117 671.275 248.6 670.238 247.565C670.108 247.435 670.108 247.306 669.979 247.177Z" fill="#3376BD"/>
<path d="M830.64 74.3213C830.64 70.828 829.215 67.464 826.753 65.0058C824.291 62.5475 820.923 61.1243 817.424 61.1243H319.375C315.876 61.1243 312.508 62.5475 310.046 65.0058C307.584 67.464 306.159 70.828 306.159 74.3213V127.368H830.51V74.3213H830.64Z" fill="#142664"/>
<path d="M429.376 87.9065C431.06 86.2245 431.578 83.6369 430.672 81.4374C429.765 79.2379 427.562 77.8146 425.23 77.8146H360.577C359.022 77.8146 357.467 78.4616 356.431 79.4966C352.544 83.3781 342.826 92.9524 335.311 100.586C333.627 102.268 333.109 104.856 334.016 107.055C334.923 109.255 337.125 110.678 339.457 110.678H404.111C405.665 110.678 407.22 110.031 408.257 108.996L429.376 87.9065Z" fill="black"/>
<path d="M557.127 72.8981V114.818C557.127 116.371 558.293 117.535 559.848 117.535C561.403 117.535 562.569 116.371 562.569 114.818V72.8981C562.569 71.3455 561.403 70.1811 559.848 70.1811C558.423 70.0517 557.127 71.3455 557.127 72.8981ZM622.428 72.8981V114.818C622.428 116.371 623.595 117.535 625.149 117.535C626.704 117.535 627.87 116.371 627.87 114.818V72.8981C627.87 71.3455 626.704 70.1811 625.149 70.1811C623.595 70.1811 622.428 71.3455 622.428 72.8981ZM547.28 91.0117C547.28 90.2354 547.021 89.5885 546.503 89.0709C545.985 88.5534 545.207 88.2946 544.43 88.2946H510.095C509.318 88.2946 508.67 88.5534 508.152 89.0709C507.633 89.5885 507.374 90.3648 507.374 91.0117V97.3514C507.374 98.1277 507.633 98.7746 508.152 99.2922C508.67 99.8097 509.447 100.068 510.095 100.068H544.43C545.207 100.068 545.855 99.8097 546.503 99.2922C547.021 98.7746 547.28 97.9983 547.28 97.3514V91.0117ZM612.581 91.0117C612.581 90.2354 612.322 89.5885 611.804 89.0709C611.286 88.5534 610.508 88.2946 609.861 88.2946H575.526C574.748 88.2946 574.1 88.5534 573.582 89.0709C573.064 89.5885 572.805 90.3648 572.805 91.0117V97.3514C572.805 98.1277 573.064 98.7746 573.582 99.2922C574.1 99.8097 574.878 100.068 575.526 100.068H609.861C610.638 100.068 611.286 99.8097 611.804 99.2922C612.322 98.7746 612.581 97.9983 612.581 97.3514V91.0117ZM677.882 91.0117C677.882 90.2354 677.623 89.5885 677.105 89.0709C676.587 88.5534 675.809 88.2946 675.162 88.2946H640.827C640.049 88.2946 639.401 88.5534 638.883 89.0709C638.365 89.5885 638.106 90.3648 638.106 91.0117V97.3514C638.106 98.1277 638.365 98.7746 638.883 99.2922C639.401 99.8097 640.179 100.068 640.827 100.068H675.162C675.939 100.068 676.587 99.8097 677.105 99.2922C677.623 98.7746 677.882 97.9983 677.882 97.3514V91.0117Z" fill="#08D4F8"/>
<path d="M736.187 114.818C747.779 114.818 757.176 105.434 757.176 93.8581C757.176 82.2822 747.779 72.8981 736.187 72.8981C724.595 72.8981 715.197 82.2822 715.197 93.8581C715.197 105.434 724.595 114.818 736.187 114.818Z" fill="#3376BD"/>
<path d="M315.877 51.55C321.172 51.55 325.464 47.2634 325.464 41.9756C325.464 36.6879 321.172 32.4013 315.877 32.4013C310.581 32.4013 306.289 36.6879 306.289 41.9756C306.289 47.2634 310.581 51.55 315.877 51.55Z" fill="#3376BD"/>
<path d="M346.843 51.55C352.138 51.55 356.43 47.2634 356.43 41.9756C356.43 36.6879 352.138 32.4013 346.843 32.4013C341.547 32.4013 337.255 36.6879 337.255 41.9756C337.255 47.2634 341.547 51.55 346.843 51.55Z" fill="#142664"/>
<path d="M377.938 51.55C383.234 51.55 387.526 47.2634 387.526 41.9756C387.526 36.6879 383.234 32.4013 377.938 32.4013C372.643 32.4013 368.35 36.6879 368.35 41.9756C368.35 47.2634 372.643 51.55 377.938 51.55Z" fill="#08D4F8"/>
<path d="M790.993 114.818C802.585 114.818 811.983 105.434 811.983 93.8581C811.983 82.2822 802.585 72.8981 790.993 72.8981C779.401 72.8981 770.003 82.2822 770.003 93.8581C770.003 105.434 779.401 114.818 790.993 114.818Z" fill="#3376BD"/>
<path d="M382.344 158.549C382.344 157.126 381.825 155.703 380.789 154.797C379.752 153.762 378.457 153.245 377.031 153.245H361.095C359.67 153.245 358.244 153.762 357.337 154.797C356.301 155.832 355.783 157.126 355.783 158.549V169.676C355.783 171.1 356.301 172.523 357.337 173.429C358.374 174.334 359.67 174.981 361.095 174.981H377.031C378.457 174.981 379.882 174.464 380.789 173.429C381.696 172.393 382.344 171.1 382.344 169.676V158.549ZM576.821 158.549C576.821 155.574 574.36 153.115 571.38 153.115H404.499C401.519 153.115 399.058 155.574 399.058 158.549V169.676C399.058 172.652 401.519 175.11 404.499 175.11H571.38C574.36 175.11 576.821 172.652 576.821 169.676V158.549ZM654.042 158.549C654.042 155.574 651.581 153.115 648.601 153.115H599.107C596.127 153.115 593.665 155.574 593.665 158.549V169.676C593.665 172.652 596.127 175.11 599.107 175.11H648.601C651.581 175.11 654.042 172.652 654.042 169.676V158.549ZM787.754 85.1895L788.661 81.4374H793.585L794.491 85.1895C794.621 85.1895 794.751 85.3189 794.88 85.3189L798.119 83.2487L801.617 86.7421L799.544 89.9766C799.544 90.106 799.674 90.2354 799.674 90.3648L803.431 91.2705V96.187L799.674 97.0927C799.674 97.2221 799.544 97.3515 799.544 97.4808L801.617 100.715L798.119 104.209L794.88 102.139C794.751 102.139 794.621 102.268 794.491 102.268L793.585 106.02H788.661L787.754 102.268C787.624 102.268 787.495 102.139 787.365 102.139L784.126 104.209L780.628 100.715L782.701 97.4808C782.701 97.3515 782.571 97.2221 782.571 97.0927L778.814 96.187V91.2705L782.571 90.3648C782.571 90.2354 782.701 90.106 782.701 89.9766L780.628 86.7421L784.126 83.2487L787.365 85.3189C787.495 85.3189 787.624 85.3189 787.754 85.1895ZM790.993 89.5885C793.325 89.5885 795.139 91.5292 795.139 93.7287C795.139 96.0576 793.196 97.869 790.993 97.869C788.661 97.869 786.847 95.9282 786.847 93.7287C786.847 91.5292 788.661 89.5885 790.993 89.5885Z" fill="black"/>
<path d="M380.141 207.197C381.048 207.197 382.084 207.586 382.732 208.232C383.38 208.879 383.769 209.785 383.769 210.82V212.89C383.769 213.796 383.38 214.831 382.732 215.478C382.084 216.125 381.177 216.513 380.141 216.513H359.281C358.374 216.513 357.337 216.125 356.69 215.478C356.042 214.831 355.653 213.925 355.653 212.89V210.82C355.653 209.914 356.042 208.879 356.69 208.232C357.337 207.586 358.244 207.197 359.281 207.197H380.141ZM460.212 213.02C460.212 213.925 459.824 214.96 459.176 215.607C458.528 216.254 457.621 216.642 456.585 216.642H395.818C394.911 216.642 393.875 216.254 393.227 215.607C392.579 214.96 392.191 214.055 392.191 213.02V210.949C392.191 210.044 392.579 209.009 393.227 208.362C393.875 207.715 394.782 207.327 395.818 207.327H456.585C457.492 207.327 458.528 207.715 459.176 208.362C459.824 209.009 460.212 209.914 460.212 210.949V213.02ZM526.032 216.642H472.003C471.096 216.642 470.059 216.254 469.412 215.607C468.764 214.96 468.375 214.055 468.375 213.02V210.949C468.375 210.044 468.764 209.009 469.412 208.362C470.059 207.715 470.966 207.327 472.003 207.327H526.032V216.642ZM584.984 213.02C584.984 213.925 584.595 214.96 583.947 215.607C583.3 216.254 582.393 216.642 581.356 216.642H567.881C566.974 216.642 565.938 216.254 565.29 215.607C564.642 214.96 564.253 214.055 564.253 213.02V210.949C564.253 210.044 564.642 209.009 565.29 208.362C565.938 207.715 566.845 207.327 567.881 207.327H581.356C582.263 207.327 583.3 207.715 583.947 208.362C584.595 209.009 584.984 209.914 584.984 210.949V213.02ZM593.276 210.82C593.276 209.914 593.665 208.879 594.313 208.232C594.96 207.586 595.867 207.197 596.904 207.197H617.375C618.282 207.197 619.319 207.586 619.967 208.232C620.614 208.879 621.003 209.785 621.003 210.82V212.89C621.003 213.796 620.614 214.831 619.967 215.478C619.319 216.125 618.412 216.513 617.375 216.513H596.904C595.997 216.513 594.96 216.125 594.313 215.478C593.665 214.831 593.276 213.925 593.276 212.89V210.82ZM415.512 189.472C417.585 189.472 419.14 191.154 419.14 193.095V195.165C419.14 197.235 417.456 198.788 415.512 198.788H359.281C357.208 198.788 355.653 197.106 355.653 195.165V193.095C355.653 191.025 357.337 189.472 359.281 189.472H415.512ZM444.535 195.294C444.535 196.2 444.146 197.235 443.498 197.882C442.851 198.529 441.944 198.917 440.907 198.917H431.19C430.283 198.917 429.246 198.529 428.598 197.882C427.951 197.235 427.562 196.329 427.562 195.294V193.224C427.562 192.318 427.951 191.283 428.598 190.636C429.246 189.989 430.153 189.601 431.19 189.601H440.907C441.814 189.601 442.851 189.989 443.498 190.636C444.146 191.283 444.535 192.189 444.535 193.224V195.294ZM550.39 195.294C550.39 196.2 550.001 197.235 549.353 197.882C548.706 198.529 547.799 198.917 546.762 198.917H456.455C455.548 198.917 454.512 198.529 453.864 197.882C453.216 197.235 452.827 196.329 452.827 195.294V193.224C452.827 192.318 453.216 191.283 453.864 190.636C454.512 189.989 455.418 189.601 456.455 189.601H546.762C547.669 189.601 548.706 189.989 549.353 190.636C550.001 191.283 550.39 192.189 550.39 193.224V195.294ZM558.553 193.095C558.553 192.189 558.941 191.154 559.589 190.507C560.237 189.86 561.144 189.472 562.18 189.472H617.246C618.153 189.472 619.189 189.86 619.837 190.507C620.485 191.154 620.874 192.06 620.874 193.095V195.165C620.874 196.07 620.485 197.106 619.837 197.752C619.189 198.399 618.282 198.788 617.246 198.788H562.18C561.273 198.788 560.237 198.399 559.589 197.752C558.941 197.106 558.553 196.2 558.553 195.165V193.095ZM373.792 224.923V234.368H359.281C358.374 234.368 357.337 233.98 356.69 233.333C356.042 232.686 355.653 231.78 355.653 230.745V228.675C355.653 227.769 356.042 226.734 356.69 226.087C357.337 225.44 358.244 225.052 359.281 225.052C364.593 224.923 373.792 224.923 373.792 224.923ZM465.006 230.745C465.006 232.815 463.322 234.368 461.379 234.368H432.226C430.153 234.368 428.598 232.686 428.598 230.745V228.675C428.598 226.605 430.283 225.052 432.226 225.052H461.379C463.452 225.052 465.006 226.734 465.006 228.675V230.745ZM486.514 230.745C486.514 232.815 484.83 234.368 482.886 234.368H476.926C474.853 234.368 473.299 232.686 473.299 230.745V228.675C473.299 226.605 474.983 225.052 476.926 225.052H482.886C484.959 225.052 486.514 226.734 486.514 228.675V230.745ZM526.032 224.923V234.368H498.434C497.527 234.368 496.491 233.98 495.843 233.333C495.195 232.686 494.806 231.78 494.806 230.745V228.675C494.806 227.769 495.195 226.734 495.843 226.087C496.491 225.44 497.398 225.052 498.434 225.052C506.726 224.923 526.032 224.923 526.032 224.923ZM558.812 224.923H571.12C573.193 224.923 574.748 226.605 574.748 228.546V230.616C574.748 232.686 573.064 234.238 571.12 234.238H558.812V224.923ZM402.038 228.546C402.038 227.64 402.426 226.605 403.074 225.958C403.722 225.311 404.629 224.923 405.665 224.923H416.549C417.456 224.923 418.492 225.311 419.14 225.958C419.788 226.605 420.177 227.51 420.177 228.546V230.616C420.177 231.521 419.788 232.556 419.14 233.203C418.492 233.85 417.585 234.238 416.549 234.238H405.665C404.758 234.238 403.722 233.85 403.074 233.203C402.426 232.556 402.038 231.651 402.038 230.616V228.546Z" fill="#142664"/>
<path d="M452.179 95.9282C453.864 94.2462 454.382 91.6586 453.475 89.4591C452.568 87.2596 450.365 85.8364 448.033 85.8364H398.798C397.244 85.8364 395.689 86.4833 394.652 87.5183L389.47 92.6936C387.785 94.3756 387.267 96.9633 388.174 99.1628C389.081 101.362 391.284 102.786 393.616 102.786H442.851C444.405 102.786 445.96 102.139 446.997 101.104C448.292 99.6803 450.236 97.869 452.179 95.9282ZM380.4 95.9282C382.084 94.2462 382.603 91.6586 381.696 89.4591C380.789 87.2596 378.586 85.8364 376.254 85.8364H362.65C361.095 85.8364 359.54 86.4833 358.503 87.5183L353.321 92.6936C351.637 94.3756 351.118 96.9633 352.025 99.1628C352.932 101.362 355.135 102.786 357.467 102.786H371.071C372.626 102.786 374.181 102.139 375.217 101.104L380.4 95.9282Z" fill="#3376BD"/>
<path d="M364.982 415.762C362.909 415.762 361.354 414.08 361.354 412.14V376.948C361.354 375.524 361.872 374.231 362.909 373.325C363.945 372.29 365.241 371.772 366.537 371.772H375.736C375.736 371.772 380.918 374.101 380.918 376.948V379.276C380.918 380.7 381.437 381.993 382.473 382.899C383.51 383.934 384.805 384.452 386.101 384.452H388.822C390.247 384.452 391.543 384.969 392.45 386.004C393.486 387.039 394.005 388.333 394.005 389.627V416.927C394.005 418.35 393.486 419.644 392.45 420.55C391.413 421.585 390.118 422.102 388.822 422.102H384.158C381.307 422.102 378.975 424.431 378.975 427.277V427.666C378.975 430.512 376.643 432.841 373.792 432.841C370.942 432.841 368.61 430.512 368.61 427.666V419.385C368.739 417.315 367.055 415.762 364.982 415.762Z" fill="#08D4F8"/>
<path d="M645.621 328.041C644.195 328.041 643.159 326.876 643.159 325.583V297.118C643.159 295.436 644.584 294.013 646.268 294.013H650.544C651.469 294.024 652.352 294.395 653.006 295.048C653.66 295.701 654.032 296.583 654.042 297.507C654.053 298.43 654.425 299.312 655.079 299.965C655.733 300.618 656.616 300.989 657.541 301H657.67C658.577 301 659.614 301.388 660.262 302.035C660.909 302.682 661.298 303.588 661.298 304.623V316.785C661.298 318.208 660.78 319.502 659.743 320.407C658.707 321.442 657.411 321.96 656.115 321.96H655.468C654.82 321.96 654.172 322.219 653.654 322.736C653.135 323.254 652.876 323.901 652.876 324.548V325.583C652.876 326.229 652.617 326.876 652.099 327.394C651.581 327.911 650.933 328.17 650.285 328.17C648.989 328.041 647.175 328.041 645.621 328.041ZM346.454 349.26C346.454 347.836 345.936 346.543 344.899 345.637C343.863 344.602 342.567 344.084 341.271 344.084H334.534C333.109 344.084 331.813 344.602 330.906 345.637C329.999 346.672 329.351 347.966 329.351 349.26V355.988C329.351 357.411 329.87 358.705 330.906 359.61C331.943 360.645 333.238 361.163 334.534 361.163H341.271C342.697 361.163 343.992 360.645 344.899 359.61C345.936 358.575 346.454 357.281 346.454 355.988V349.26Z" fill="#3376BD"/>
<path d="M724.137 104.985C724.137 99.4216 725.174 94.8932 732.43 93.7287C730.486 92.4349 729.19 90.2354 729.19 87.7771C729.19 83.8956 732.43 80.6611 736.316 80.6611C740.203 80.6611 743.443 83.8956 743.443 87.7771C743.443 90.2354 742.147 92.5643 740.203 93.7287C747.459 94.8932 748.366 99.4216 748.496 104.985C748.496 105.114 748.496 105.373 748.366 105.373C748.236 105.503 748.107 105.503 747.977 105.503H724.915C724.785 105.503 724.656 105.373 724.526 105.373C724.137 105.373 724.137 105.244 724.137 104.985Z" fill="black"/>
<path d="M416.938 299.059C416.938 297.636 416.419 296.342 415.383 295.436C414.346 294.401 413.051 293.884 411.755 293.884H393.616C392.191 293.884 390.895 294.401 389.988 295.436C388.951 296.471 388.433 297.765 388.433 299.059V325.194C388.433 326.618 388.951 327.911 389.988 328.817C391.024 329.852 392.32 330.37 393.616 330.37H411.755C413.18 330.37 414.476 329.852 415.383 328.817C416.419 327.782 416.938 326.488 416.938 325.194V299.059Z" fill="#08D4F8"/>
<path d="M684.231 377.206C684.231 374.36 681.899 372.031 679.049 372.031H667.517C664.667 372.031 662.335 374.36 662.335 377.206V411.105C662.335 413.951 664.667 416.28 667.517 416.28H679.049C681.899 416.28 684.231 413.951 684.231 411.105V377.206ZM779.332 272.536C779.332 271.371 778.425 270.466 777.259 270.466H773.89C772.724 270.466 771.817 271.371 771.817 272.536V302.035C771.817 303.199 772.724 304.105 773.89 304.105H777.259C778.425 304.105 779.332 303.199 779.332 302.035V272.536Z" fill="#3376BD"/>
<path d="M614.266 363.621C614.266 362.457 613.359 361.551 612.193 361.551H601.827C600.661 361.551 599.754 362.457 599.754 363.621V383.546C599.754 384.71 600.661 385.616 601.827 385.616H612.193C613.359 385.616 614.266 384.71 614.266 383.546V363.621Z" fill="#08D4F8"/>
<path d="M551.556 269.301C548.706 269.301 546.373 271.63 546.373 274.476V308.892C546.373 311.739 548.706 314.068 551.556 314.068H559.071C561.921 314.068 564.253 311.739 564.253 308.892V300.612C564.253 299.835 563.994 299.059 563.346 298.542C562.828 298.024 562.051 297.636 561.273 297.636C560.496 297.636 559.719 297.377 559.2 296.73C558.682 296.213 558.293 295.436 558.293 294.66V274.476C558.293 271.63 555.961 269.301 553.111 269.301H551.556Z" fill="#3376BD"/>
<path d="M758.472 271.112C761.323 271.112 763.655 268.784 763.655 265.937V236.438C763.655 235.015 763.137 233.721 762.1 232.815C761.064 231.78 759.768 231.263 758.472 231.263H748.625C747.2 231.263 745.904 231.78 744.997 232.815C743.961 233.85 743.443 235.144 743.443 236.438V246.4C743.443 248.341 744.997 249.764 746.811 249.764C747.736 249.775 748.619 250.147 749.273 250.799C749.927 251.452 750.299 252.334 750.31 253.258V265.937C750.31 268.784 752.642 271.112 755.492 271.112H758.472Z" fill="#142664"/>
<path d="M730.097 315.361C727.247 315.361 724.915 317.69 724.915 320.537V359.74C724.915 362.586 727.247 364.915 730.097 364.915H744.868C747.718 364.915 750.05 362.586 750.05 359.74V335.028C750.05 332.699 748.107 330.758 745.775 330.758C743.443 330.758 741.499 328.817 741.499 326.488V320.407C741.499 318.984 740.981 317.69 739.944 316.785C738.908 315.749 737.612 315.232 736.316 315.232C734.503 315.361 732.17 315.361 730.097 315.361Z" fill="#08D4F8"/>
<path d="M343.992 428.701C341.142 428.701 338.81 431.03 338.81 433.876V471.009H361.743V445.262C361.743 443.838 361.224 442.545 360.188 441.639C359.151 440.604 357.856 440.086 356.56 440.086C353.71 440.086 351.377 437.757 351.377 434.911V434.005C351.377 431.159 349.045 428.83 346.195 428.83C345.417 428.701 344.64 428.701 343.992 428.701Z" fill="#142664"/>
<path d="M496.232 328.947C496.232 327.523 495.713 326.23 494.677 325.324C493.64 324.289 492.345 323.771 491.049 323.771H476.019C473.169 323.771 470.837 326.1 470.837 328.947V379.018C470.837 381.864 473.169 384.193 476.019 384.193H486.385C489.235 384.193 491.567 381.864 491.567 379.018V374.489C491.567 373.584 491.179 372.807 490.531 372.16C489.883 371.513 489.106 371.125 488.199 371.125C487.292 371.125 486.514 370.737 485.866 370.09C485.219 369.443 484.83 368.667 484.83 367.761V347.19C484.83 345.766 485.348 344.472 486.385 343.567C487.421 342.532 488.717 342.014 490.012 342.014H490.919C492.345 342.014 493.64 341.497 494.547 340.462C495.584 339.427 496.102 338.133 496.102 336.839C496.232 334.381 496.232 331.405 496.232 328.947Z" fill="#08D4F8"/>
<path d="M875.599 520.951C875.599 514.223 870.158 508.789 863.42 508.789H272.99C266.253 508.789 260.811 514.223 260.811 520.951V553.814C260.811 555.366 261.459 556.919 262.625 558.083C263.791 559.248 265.346 559.895 266.901 559.895H869.51C871.065 559.895 872.619 559.248 873.785 558.083C874.952 556.919 875.599 555.366 875.599 553.814V520.951Z" fill="#3376BD"/>
<path d="M875.599 520.951C875.599 517.716 874.304 514.611 872.101 512.411C869.769 510.082 866.789 508.918 863.55 508.918H836.73C833.491 508.918 830.381 510.212 828.178 512.411C825.846 514.74 824.68 517.716 824.68 520.951V553.684C824.68 557.178 827.531 559.895 830.899 559.895H869.769C873.138 559.895 875.859 557.178 875.859 553.814V520.951H875.599ZM830.64 465.057C830.64 461.823 828.049 459.106 824.68 459.106H312.119C308.88 459.106 306.159 461.693 306.159 465.057C306.159 468.292 308.75 471.009 312.119 471.009H824.68C827.919 470.879 830.64 468.292 830.64 465.057Z" fill="#142664"/>
<path d="M758.343 470.879V437.887C758.343 435.17 760.545 432.841 763.396 432.841C766.116 432.841 768.449 430.641 768.449 427.795V414.986C768.449 413.563 768.967 412.269 770.003 411.363C771.04 410.328 772.336 409.811 773.631 409.811H776.87C778.296 409.811 779.591 410.328 780.498 411.363C781.535 412.398 782.053 413.692 782.053 414.986V418.997C782.053 420.42 782.571 421.714 783.608 422.62C784.644 423.525 785.94 424.172 787.236 424.172H789.956C791.382 424.172 792.677 424.69 793.584 425.725C794.621 426.76 795.139 428.054 795.139 429.347V470.75H758.343V470.879Z" fill="#08D4F8"/>
<path d="M476.926 365.691C476.926 362.845 474.594 360.516 471.744 360.516H466.172C463.322 360.516 460.99 362.845 460.99 365.691V397.261C460.99 398.813 461.638 400.236 462.674 401.271C463.711 402.307 465.136 402.953 466.691 402.953H471.355C472.91 402.953 474.335 402.307 475.372 401.271C476.408 400.236 477.056 398.813 477.056 397.261C476.926 388.98 476.926 373.713 476.926 365.691ZM822.607 362.457C822.607 359.61 820.275 357.281 817.424 357.281H807.448C804.597 357.281 802.265 359.61 802.265 362.457V372.419C802.265 375.266 804.597 377.594 807.448 377.594H817.424C820.275 377.594 822.607 375.266 822.607 372.419V362.457Z" fill="#3376BD"/>
<path d="M793.844 325.583C793.844 324.677 793.066 323.901 792.159 323.901H787.236C786.329 323.901 785.551 324.677 785.551 325.583V330.499C785.551 331.405 786.329 332.181 787.236 332.181H792.159C793.066 332.181 793.844 331.405 793.844 330.499V325.583ZM615.302 303.458C615.302 302.552 614.525 301.776 613.618 301.776H608.694C607.787 301.776 607.01 302.552 607.01 303.458V308.375C607.01 309.28 607.787 310.057 608.694 310.057H613.618C614.525 310.057 615.302 309.28 615.302 308.375V303.458ZM503.617 424.043C503.617 423.137 502.839 422.361 501.932 422.361H499.73C498.823 422.361 498.046 423.137 498.046 424.043V426.242C498.046 427.148 498.823 427.924 499.73 427.924H501.932C502.839 427.924 503.617 427.148 503.617 426.242V424.043ZM802.265 406.576C802.265 405.671 801.488 404.894 800.581 404.894H798.378C797.471 404.894 796.694 405.671 796.694 406.576V408.776C796.694 409.681 797.471 410.458 798.378 410.458H800.581C801.488 410.458 802.265 409.681 802.265 408.776V406.576ZM690.191 434.782C690.191 433.876 689.414 433.1 688.507 433.1H686.304C685.397 433.1 684.62 433.876 684.62 434.782V436.981C684.62 437.887 685.397 438.663 686.304 438.663H688.507C689.414 438.663 690.191 437.887 690.191 436.981V434.782Z" fill="#142664"/>
<path d="M698.095 390.015C698.095 389.11 697.317 388.333 696.41 388.333H694.208C693.301 388.333 692.523 389.11 692.523 390.015V392.215C692.523 393.12 693.301 393.897 694.208 393.897H696.41C697.317 393.897 698.095 393.12 698.095 392.215V390.015Z" fill="#08D4F8"/>
<path d="M748.884 283.145C748.884 282.239 748.107 281.463 747.2 281.463H744.997C744.09 281.463 743.313 282.239 743.313 283.145V285.345C743.313 286.25 744.09 287.027 744.997 287.027H747.2C748.107 287.027 748.884 286.25 748.884 285.345V283.145ZM457.492 304.493C457.492 303.588 456.714 302.811 455.807 302.811H453.605C452.698 302.811 451.92 303.588 451.92 304.493V306.693C451.92 307.598 452.698 308.375 453.605 308.375H455.807C456.714 308.375 457.492 307.598 457.492 306.693V304.493Z" fill="#142664"/>
<path d="M394.782 353.529C394.782 352.624 394.004 351.847 393.098 351.847H390.895C389.988 351.847 389.211 352.624 389.211 353.529V355.729C389.211 356.634 389.988 357.411 390.895 357.411H393.098C394.004 357.411 394.782 356.634 394.782 355.729V353.529ZM426.655 398.943C426.655 398.037 425.878 397.261 424.971 397.261H422.768C421.861 397.261 421.084 398.037 421.084 398.943V401.142C421.084 402.048 421.861 402.824 422.768 402.824H424.971C425.878 402.824 426.655 402.048 426.655 401.142V398.943ZM514.63 438.016C514.63 437.111 513.853 436.334 512.946 436.334H510.743C509.836 436.334 509.059 437.111 509.059 438.016V440.216C509.059 441.121 509.836 441.898 510.743 441.898H512.946C513.853 441.898 514.63 441.121 514.63 440.216V438.016ZM791.9 250.152C791.9 249.247 791.123 248.47 790.216 248.47H788.013C787.106 248.47 786.329 249.247 786.329 250.152V252.352C786.329 253.258 787.106 254.034 788.013 254.034H790.216C791.123 254.034 791.9 253.258 791.9 252.352V250.152ZM596.904 353.4C596.904 352.494 596.127 351.718 595.22 351.718H593.017C592.11 351.718 591.333 352.494 591.333 353.4V355.599C591.333 356.505 592.11 357.281 593.017 357.281H595.22C596.127 357.281 596.904 356.505 596.904 355.599V353.4ZM552.333 233.591C552.333 232.686 551.556 231.909 550.649 231.909H548.447C547.54 231.909 546.762 232.686 546.762 233.591V235.791C546.762 236.697 547.54 237.473 548.447 237.473H550.649C551.556 237.473 552.333 236.697 552.333 235.791V233.591ZM417.585 269.43C417.585 268.525 416.808 267.748 415.901 267.748H413.698C412.791 267.748 412.014 268.525 412.014 269.43V271.63C412.014 272.536 412.791 273.312 413.698 273.312H415.901C416.808 273.312 417.585 272.536 417.585 271.63V269.43Z" fill="#3376BD"/>
<path d="M354.487 407.223C354.487 406.317 353.71 405.541 352.803 405.541H350.6C349.693 405.541 348.916 406.317 348.916 407.223V409.423C348.916 410.328 349.693 411.105 350.6 411.105H352.803C353.71 411.105 354.487 410.328 354.487 409.423V407.223ZM582.652 428.183C582.652 427.277 581.874 426.501 580.967 426.501H578.765C577.858 426.501 577.08 427.277 577.08 428.183V430.383C577.08 431.288 577.858 432.065 578.765 432.065H580.967C581.874 432.065 582.652 431.288 582.652 430.383V428.183ZM623.465 317.043C623.465 316.138 622.688 315.361 621.781 315.361H619.578C618.671 315.361 617.894 316.138 617.894 317.043V319.243C617.894 320.148 618.671 320.925 619.578 320.925H621.781C622.688 320.925 623.465 320.148 623.465 319.243V317.043Z" fill="#08D4F8"/>
<path d="M680.344 283.145C680.344 282.239 679.567 281.463 678.66 281.463H673.736C672.829 281.463 672.052 282.239 672.052 283.145V288.062C672.052 288.967 672.829 289.744 673.736 289.744H678.66C679.567 289.744 680.344 288.967 680.344 288.062V283.145ZM572.546 398.813C572.546 397.908 571.768 397.131 570.861 397.131H565.938C565.031 397.131 564.253 397.908 564.253 398.813V403.73C564.253 404.635 565.031 405.412 565.938 405.412H570.861C571.768 405.412 572.546 404.635 572.546 403.73V398.813ZM761.97 387.945C761.97 387.039 761.193 386.263 760.286 386.263H755.363C754.456 386.263 753.678 387.039 753.678 387.945V392.862C753.678 393.767 754.456 394.544 755.363 394.544H760.286C761.193 394.544 761.97 393.767 761.97 392.862V387.945Z" fill="#3376BD"/>
<path d="M384.158 338.391C384.158 337.486 383.38 336.709 382.473 336.709H377.55C376.643 336.709 375.865 337.486 375.865 338.391V343.308C375.865 344.214 376.643 344.99 377.55 344.99H382.473C383.38 344.99 384.158 344.214 384.158 343.308V338.391ZM590.814 254.681C590.814 253.775 590.037 252.999 589.13 252.999H584.207C583.3 252.999 582.522 253.775 582.522 254.681V259.597C582.522 260.503 583.3 261.279 584.207 261.279H589.13C590.037 261.279 590.814 260.503 590.814 259.597V254.681Z" fill="#142664"/>
<path d="M465.784 287.803C465.784 286.897 465.006 286.121 464.099 286.121H459.176C458.269 286.121 457.492 286.897 457.492 287.803V292.719C457.492 293.625 458.269 294.401 459.176 294.401H464.099C465.006 294.401 465.784 293.625 465.784 292.719V287.803ZM706.128 401.142C706.128 400.236 705.35 399.46 704.443 399.46H699.52C698.613 399.46 697.836 400.236 697.836 401.142V406.059C697.836 406.964 698.613 407.741 699.52 407.741H704.443C705.35 407.741 706.128 406.964 706.128 406.059V401.142Z" fill="#08D4F8"/>
<path d="M546.373 322.348C546.373 321.442 545.596 320.666 544.689 320.666H539.766C538.859 320.666 538.081 321.442 538.081 322.348V333.604C538.081 334.51 538.859 335.286 539.766 335.286H544.689C545.596 335.286 546.373 334.51 546.373 333.604V322.348Z" fill="#142664"/>
<path d="M666.351 259.597C666.351 258.692 665.574 257.915 664.667 257.915H659.743C658.836 257.915 658.059 258.692 658.059 259.597V270.854C658.059 271.759 658.836 272.536 659.743 272.536H664.667C665.574 272.536 666.351 271.759 666.351 270.854V259.597Z" fill="#08D4F8"/>
<path d="M545.855 243.942C545.855 243.036 545.078 242.26 544.171 242.26H539.247C538.34 242.26 537.563 243.036 537.563 243.942V255.198C537.563 256.104 538.34 256.88 539.247 256.88H544.171C545.078 256.88 545.855 256.104 545.855 255.198V243.942ZM321.059 384.452C321.059 385.357 321.836 386.134 322.743 386.134H327.667C328.574 386.134 329.351 385.357 329.351 384.452V373.195C329.351 372.29 328.574 371.513 327.667 371.513H322.743C321.836 371.513 321.059 372.29 321.059 373.195V384.452Z" fill="#142664"/>
<path d="M401.26 267.619V256.492C401.26 255.587 400.483 254.81 399.576 254.81H394.652C393.745 254.81 392.968 255.587 392.968 256.492V259.727C392.968 260.503 392.32 261.279 391.413 261.279H388.174C387.267 261.279 386.49 262.056 386.49 262.961V267.878C386.49 268.784 387.267 269.56 388.174 269.56H399.446L401.26 267.619Z" fill="#3376BD"/>
<path d="M639.401 408.905V397.649C639.401 396.743 638.624 395.967 637.717 395.967H632.794C631.887 395.967 631.109 396.743 631.109 397.649V400.883C631.109 401.66 630.461 402.436 629.554 402.436H626.315C625.408 402.436 624.631 403.212 624.631 404.118V409.034C624.631 409.94 625.408 410.716 626.315 410.716H637.588L639.401 408.905Z" fill="#08D4F8"/>
<path d="M425.618 382.123H436.891C437.798 382.123 438.575 381.347 438.575 380.441V375.524C438.575 374.619 437.798 373.842 436.891 373.842H433.652C432.874 373.842 432.097 373.195 432.097 372.29V369.055C432.097 368.15 431.319 367.373 430.412 367.373H425.489C424.582 367.373 423.805 368.15 423.805 369.055V380.311L425.618 382.123Z" fill="#142664"/>
<path d="M734.114 446.297C734.114 444.873 733.596 443.58 732.559 442.674C731.523 441.639 730.227 441.121 728.931 441.121H723.878C722.453 441.121 721.157 441.639 720.25 442.674C719.214 443.709 718.696 445.003 718.696 446.297V470.879H734.114V446.297Z" fill="#3376BD"/>
<path d="M736.057 544.239C736.057 543.592 735.798 542.946 735.28 542.557C734.762 542.04 734.243 541.781 733.596 541.781H726.599C725.951 541.781 725.303 542.04 724.915 542.557C724.396 543.075 724.137 543.592 724.137 544.239V551.226C724.137 551.873 724.396 552.52 724.915 552.908C725.433 553.426 725.951 553.684 726.599 553.684H733.596C734.243 553.684 734.891 553.426 735.28 552.908C735.669 552.39 736.057 551.873 736.057 551.226V544.239ZM744.22 534.794C744.22 534.148 743.961 533.501 743.443 533.112C742.924 532.724 742.406 532.336 741.758 532.336H741.37C740.722 532.336 740.074 532.595 739.685 533.112C739.296 533.63 738.908 534.148 738.908 534.794V541.781C738.908 542.428 739.167 543.075 739.685 543.463C740.203 543.851 740.722 544.239 741.37 544.239H741.758C742.406 544.239 743.054 543.981 743.443 543.463C743.831 542.946 744.22 542.428 744.22 541.781V534.794ZM797.212 544.239C797.212 543.592 796.953 542.946 796.435 542.557C795.917 542.04 795.398 541.781 794.751 541.781H794.362C793.714 541.781 793.066 542.04 792.677 542.557C792.159 543.075 791.9 543.592 791.9 544.239V551.226C791.9 551.873 792.159 552.52 792.677 552.908C793.196 553.426 793.714 553.684 794.362 553.684H794.751C795.398 553.684 796.046 553.426 796.435 552.908C796.953 552.39 797.212 551.873 797.212 551.226V544.239ZM808.225 544.239C808.225 543.592 807.966 542.946 807.448 542.557C806.93 542.04 806.411 541.781 805.764 541.781H802.654C802.006 541.781 801.358 542.04 800.97 542.557C800.451 543.075 800.192 543.592 800.192 544.239V551.226C800.192 551.873 800.451 552.52 800.97 552.908C801.488 553.296 802.006 553.684 802.654 553.684H805.764C806.411 553.684 807.059 553.426 807.448 552.908C807.837 552.39 808.225 551.873 808.225 551.226V544.239ZM789.05 534.794C789.05 534.148 788.79 533.501 788.272 533.112C787.754 532.724 787.236 532.336 786.588 532.336H779.85C779.203 532.336 778.555 532.595 778.166 533.112C777.777 533.63 777.389 534.148 777.389 534.794V541.781C777.389 542.428 777.648 543.075 778.166 543.463C778.684 543.851 779.203 544.239 779.85 544.239H786.588C787.236 544.239 787.884 543.981 788.272 543.463C788.661 542.946 789.05 542.428 789.05 541.781V534.794ZM774.538 544.239C774.538 543.592 774.279 542.946 773.761 542.557C773.243 542.04 772.724 541.781 772.077 541.781H749.662C749.014 541.781 748.366 542.04 747.977 542.557C747.459 543.075 747.2 543.592 747.2 544.239V551.226C747.2 551.873 747.459 552.52 747.977 552.908C748.496 553.296 749.014 553.684 749.662 553.684H772.077C772.724 553.684 773.372 553.426 773.761 552.908C774.279 552.39 774.538 551.873 774.538 551.226V544.239Z" fill="black"/>
<path d="M850.204 542.428V557.178C850.204 558.73 849.038 559.895 847.484 559.895C845.929 559.895 844.763 558.73 844.763 557.178V539.711C844.763 538.158 845.929 536.994 847.484 536.994H872.878C874.433 536.994 875.599 538.158 875.599 539.711C875.599 541.264 874.433 542.428 872.878 542.428H850.204Z" fill="#08D4F8"/>
<path d="M595.09 508.789H575.914C575.914 508.789 566.845 517.845 561.273 523.538C560.626 524.185 560.366 525.35 560.755 526.255C561.144 527.161 562.051 527.808 563.087 527.808H573.582C575.266 527.808 576.951 527.161 578.117 525.867C582.911 521.08 595.09 508.789 595.09 508.789Z" fill="#142664"/>
<path d="M581.097 509.047L573.194 516.94C572.157 517.975 572.157 519.786 573.194 520.821C574.23 521.856 576.044 521.856 577.08 520.821L584.984 512.929C586.021 511.894 586.021 510.082 584.984 509.047C583.947 508.012 582.263 508.012 581.097 509.047Z" fill="#08D4F8"/>
<path d="M622.947 508.789H603.771C603.771 508.789 594.701 517.845 589.13 523.538C588.482 524.185 588.223 525.35 588.612 526.255C589.001 527.161 589.907 527.808 590.944 527.808H601.439C603.123 527.808 604.808 527.161 605.974 525.867C610.768 521.08 622.947 508.789 622.947 508.789Z" fill="#142664"/>
<path d="M608.954 509.047L601.05 516.94C600.014 517.975 600.014 519.786 601.05 520.821C602.087 521.856 603.901 521.856 604.937 520.821L612.841 512.929C613.877 511.894 613.877 510.082 612.841 509.047C611.804 508.012 610.12 508.012 608.954 509.047Z" fill="#08D4F8"/>
<path d="M650.803 508.789H631.628C631.628 508.789 622.558 517.845 616.987 523.538C616.339 524.185 616.08 525.35 616.468 526.255C616.857 527.161 617.764 527.808 618.801 527.808H629.295C630.98 527.808 632.664 527.161 633.83 525.867C638.624 521.08 650.803 508.789 650.803 508.789Z" fill="#142664"/>
<path d="M636.81 509.047L628.907 516.94C627.87 517.975 627.87 519.786 628.907 520.821C629.943 521.856 631.757 521.856 632.794 520.821L640.697 512.929C641.734 511.894 641.734 510.082 640.697 509.047C639.661 508.012 637.847 508.012 636.81 509.047Z" fill="#08D4F8"/>
<path d="M331.165 552.779C333.455 552.779 335.311 550.925 335.311 548.638C335.311 546.352 333.455 544.498 331.165 544.498C328.875 544.498 327.019 546.352 327.019 548.638C327.019 550.925 328.875 552.779 331.165 552.779Z" fill="#142664"/>
<path d="M346.583 552.779C348.873 552.779 350.73 550.925 350.73 548.638C350.73 546.352 348.873 544.498 346.583 544.498C344.294 544.498 342.437 546.352 342.437 548.638C342.437 550.925 344.294 552.779 346.583 552.779Z" fill="#142664"/>
<path d="M665.574 521.986C667.864 521.986 669.72 520.132 669.72 517.845C669.72 515.559 667.864 513.705 665.574 513.705C663.284 513.705 661.428 515.559 661.428 517.845C661.428 520.132 663.284 521.986 665.574 521.986Z" fill="#142664"/>
<path d="M865.752 531.56C868.042 531.56 869.898 529.706 869.898 527.42C869.898 525.133 868.042 523.279 865.752 523.279C863.462 523.279 861.606 525.133 861.606 527.42C861.606 529.706 863.462 531.56 865.752 531.56Z" fill="#08D4F8"/>
<path d="M440.907 491.71C441.555 492.616 441.555 493.78 441.037 494.686C440.518 495.591 439.611 496.238 438.445 496.238H423.934C422.898 496.238 421.861 495.591 421.343 494.686C420.824 493.78 420.954 492.616 421.472 491.71C423.675 488.475 426.655 484.206 428.728 481.23C429.246 480.454 430.153 479.936 431.06 479.936C431.967 479.936 432.874 480.454 433.392 481.23C435.595 484.206 438.705 488.475 440.907 491.71ZM576.044 491.71C576.692 492.616 576.692 493.78 576.173 494.686C575.655 495.591 574.748 496.238 573.582 496.238H558.941C557.905 496.238 556.868 495.591 556.35 494.686C555.832 493.78 555.961 492.616 556.48 491.71C558.682 488.475 561.662 484.206 563.735 481.23C564.253 480.454 565.16 479.936 566.067 479.936C566.974 479.936 567.881 480.454 568.4 481.23C570.861 484.206 573.841 488.475 576.044 491.71ZM714.809 491.71C715.456 492.616 715.456 493.78 714.938 494.686C714.42 495.591 713.513 496.238 712.347 496.238H697.706C696.669 496.238 695.633 495.591 695.115 494.686C694.596 493.78 694.726 492.616 695.244 491.71C697.447 488.475 700.427 484.206 702.5 481.23C703.018 480.454 703.925 479.936 704.832 479.936C705.739 479.936 706.646 480.454 707.164 481.23C709.626 484.206 712.606 488.475 714.809 491.71Z" fill="#142664"/>
<path d="M408.645 542.557L416.808 534.406H456.325L464.488 542.557V559.895H408.645V542.557Z" fill="#08D4F8"/>
<path d="M427.951 553.684H445.183C447.515 553.684 449.329 551.873 449.329 549.544C449.329 547.215 447.515 545.404 445.183 545.404H427.951C425.618 545.404 423.805 547.215 423.805 549.544C423.805 551.873 425.748 553.684 427.951 553.684Z" fill="#142664"/>
<path d="M421.991 531.689L412.014 521.727H389.988C388.433 521.727 387.267 520.562 387.267 519.01V511.635C387.267 510.082 388.433 508.918 389.988 508.918C391.543 508.918 392.709 510.082 392.709 511.635V516.293H413.18C413.958 516.293 414.605 516.551 415.124 517.069L429.765 531.689H449.588V511.635C449.588 510.082 450.754 508.918 452.309 508.918C453.864 508.918 455.03 510.082 455.03 511.635V531.689H456.326C457.103 531.689 457.751 531.948 458.269 532.466L466.432 540.617C466.95 541.134 467.209 541.781 467.209 542.557V557.178C467.209 558.73 466.043 559.895 464.488 559.895C462.933 559.895 461.767 558.73 461.767 557.178V543.722L455.159 537.123H417.974L411.366 543.722V557.178C411.366 558.73 410.2 559.895 408.645 559.895C407.091 559.895 405.925 558.73 405.925 557.178V542.557C405.925 541.781 406.184 541.134 406.702 540.617L414.865 532.466C415.383 531.948 416.031 531.689 416.808 531.689H421.991ZM662.335 542.687V534.277C662.335 533.501 662.594 532.854 663.112 532.336L686.045 509.435C687.082 508.4 688.896 508.4 689.932 509.435C690.969 510.471 690.969 512.282 689.932 513.317L667.776 535.441V557.048C667.776 558.601 666.61 559.765 665.056 559.765C663.501 559.765 662.335 558.601 662.335 557.048V548.121H620.874V557.048C620.874 558.601 619.708 559.765 618.153 559.765C616.598 559.765 615.432 558.601 615.432 557.048V545.274C615.432 543.722 616.598 542.557 618.153 542.557H662.335V542.687ZM749.791 519.269L761.582 509.824C762.748 508.918 764.432 509.047 765.469 510.212C766.376 511.376 766.246 513.058 765.08 514.093L752.642 524.185C752.124 524.573 751.605 524.832 750.957 524.832H725.303L706.387 543.463V557.178C706.387 558.73 705.221 559.895 703.666 559.895C702.111 559.895 700.945 558.73 700.945 557.178V542.299C700.945 541.522 701.204 540.875 701.723 540.358L722.064 520.045C722.583 519.527 723.23 519.269 724.008 519.269H749.791ZM522.533 531.689L529.141 525.091C529.66 524.573 530.307 524.314 531.085 524.314H546.114V511.635C546.114 510.082 547.28 508.918 548.835 508.918C550.39 508.918 551.556 510.082 551.556 511.635V526.902C551.556 528.455 550.39 529.619 548.835 529.619H532.251L517.221 544.757V557.178C517.221 558.73 516.055 559.895 514.5 559.895C512.946 559.895 511.78 558.73 511.78 557.178V543.592C511.78 542.816 512.039 542.169 512.557 541.652L518.647 535.571L512.816 529.749L494.029 548.509C493.252 549.285 492.086 549.544 491.049 549.156C490.013 548.768 489.365 547.733 489.365 546.568V511.764C489.365 510.212 490.531 509.047 492.086 509.047C493.64 509.047 494.806 510.212 494.806 511.764V539.84L510.743 523.926C511.78 522.891 513.593 522.891 514.63 523.926L522.533 531.689ZM331.165 527.678V536.606C331.165 538.158 329.999 539.323 328.444 539.323H294.239V557.178C294.239 558.73 293.073 559.895 291.518 559.895C289.963 559.895 288.797 558.73 288.797 557.178V536.606C288.797 535.053 289.963 533.889 291.518 533.889H325.724V511.635C325.724 510.082 326.89 508.918 328.444 508.918C329.999 508.918 331.165 510.082 331.165 511.635V522.244H339.976V511.635C339.976 510.082 341.142 508.918 342.697 508.918C344.251 508.918 345.417 510.082 345.417 511.635V524.961C345.417 526.514 344.251 527.678 342.697 527.678H331.165ZM817.813 516.681L839.451 538.288C840.487 539.323 840.487 541.134 839.451 542.169C838.414 543.204 836.6 543.204 835.564 542.169L813.149 519.786C812.631 519.269 812.371 518.622 812.371 517.845V510.729C812.371 509.177 813.538 508.012 815.092 508.012C816.647 508.012 817.813 509.177 817.813 510.729V516.681Z" fill="#142664"/>
<path d="M555.702 426.113C552.852 426.113 550.52 428.442 550.52 431.288V471.009H572.157V445.909C572.157 443.838 570.473 442.286 568.529 442.286C566.456 442.286 564.901 440.604 564.901 438.663V431.418C564.901 428.571 562.569 426.242 559.719 426.242C558.423 426.113 556.998 426.113 555.702 426.113ZM442.721 379.665C442.721 378.759 441.944 377.983 441.037 377.983H436.113C435.206 377.983 434.429 378.759 434.429 379.665V384.581C434.429 385.487 435.206 386.263 436.113 386.263H441.037C441.944 386.263 442.721 385.487 442.721 384.581V379.665Z" fill="#08D4F8"/>
</g>
<g clip-path="url(#clip8_16_1849)">
<path d="M896.349 558.599H18.3065C16.7433 558.599 15.5708 559.71 15.5708 561.191C15.5708 562.672 16.7433 563.783 18.3065 563.783H896.479C898.042 563.783 899.215 562.672 899.215 561.191C899.215 559.71 897.912 558.599 896.349 558.599Z" fill="#142664"/>
</g>
<g clip-path="url(#clip9_16_1849)">
<path d="M128.572 335.856H135.535C137.083 335.856 138.243 334.707 138.243 333.174C138.243 331.642 137.083 330.493 135.535 330.493H128.572C127.025 330.493 125.864 331.642 125.864 333.174C125.864 334.707 127.025 335.856 128.572 335.856Z" fill="#3376BD"/>
<path d="M144.304 335.856H175.639C177.187 335.856 178.347 334.707 178.347 333.174C178.347 331.642 177.187 330.493 175.639 330.493H144.304C142.757 330.493 141.596 331.642 141.596 333.174C141.467 334.707 142.757 335.856 144.304 335.856Z" fill="#08D4F8"/>
<path d="M136.954 345.303H151.01C152.557 345.303 153.718 344.154 153.718 342.622C153.718 341.09 152.557 339.941 151.01 339.941H136.954C135.406 339.941 134.246 341.09 134.246 342.622C134.246 344.027 135.535 345.303 136.954 345.303ZM141.338 363.943C142.886 363.943 144.046 362.794 144.046 361.262C144.046 359.73 142.886 358.581 141.338 358.581H131.501C129.953 358.581 128.793 359.73 128.793 361.262C128.793 362.666 130.082 363.943 131.501 363.943M159.649 345.303H164.034C165.581 345.303 166.742 344.154 166.742 342.622C166.742 341.09 165.581 339.941 164.034 339.941H159.649C158.102 339.941 156.941 341.09 156.941 342.622C156.941 344.027 158.102 345.303 159.649 345.303Z" fill="black"/>
<path d="M172.802 345.303H185.439C186.987 345.303 188.147 344.154 188.147 342.622C188.147 341.09 186.987 339.941 185.439 339.941H172.802C171.255 339.941 170.094 341.09 170.094 342.622C170.094 344.027 171.255 345.303 172.802 345.303ZM136.954 354.623H141.467C143.015 354.623 144.175 353.474 144.175 351.942C144.175 350.41 143.015 349.261 141.467 349.261H136.954C135.407 349.261 134.246 350.41 134.246 351.942C134.246 353.346 135.535 354.623 136.954 354.623Z" fill="#08D4F8"/>
<path d="M149.72 354.623H176.929C178.476 354.623 179.637 353.474 179.637 351.942C179.637 350.41 178.476 349.261 176.929 349.261H149.72C148.173 349.261 147.012 350.41 147.012 351.942C147.012 353.346 148.173 354.623 149.72 354.623ZM139.211 373.263H166.419C167.967 373.263 169.127 372.114 169.127 370.582C169.127 369.05 167.967 367.901 166.419 367.901H139.211C137.663 367.901 136.503 369.05 136.503 370.582C136.503 371.986 137.663 373.263 139.211 373.263Z" fill="#3376BD"/>
<path d="M149.204 363.943H170.868C172.415 363.943 173.576 362.794 173.576 361.262C173.576 359.73 172.415 358.581 170.868 358.581H149.204C147.657 358.581 146.496 359.73 146.496 361.262C146.367 362.794 147.657 363.943 149.204 363.943Z" fill="#08D4F8"/>
<path d="M178.734 363.943H183.763C185.31 363.943 186.471 362.794 186.471 361.262C186.471 359.73 185.31 358.581 183.763 358.581H178.734C177.187 358.581 176.026 359.73 176.026 361.262C176.026 362.794 177.187 363.943 178.734 363.943Z" fill="black"/>
<path d="M174.285 373.263H179.314C180.862 373.263 182.022 372.114 182.022 370.582C182.022 369.05 180.862 367.901 179.314 367.901H174.285C172.738 367.901 171.577 369.05 171.577 370.582C171.577 372.114 172.738 373.263 174.285 373.263Z" fill="#08D4F8"/>
</g>
<g clip-path="url(#clip10_16_1849)">
<path d="M224.479 362.291C224.479 360.522 223.052 359.007 221.106 359.007H209.557C208.649 359.007 207.87 359.385 207.222 359.891C206.573 360.522 206.313 361.28 206.313 362.164V385.532C206.313 387.3 207.741 388.816 209.687 388.816H221.235C222.144 388.816 222.922 388.437 223.571 387.932C224.22 387.3 224.479 386.542 224.479 385.658V362.291Z" fill="black"/>
<path d="M217.862 363.933C217.862 363.554 217.732 363.175 217.472 362.922C217.213 362.67 216.824 362.543 216.434 362.543H212.152C211.763 362.543 211.374 362.67 211.114 362.922C210.855 363.175 210.725 363.554 210.725 363.933V366.838C210.725 367.217 210.855 367.596 211.114 367.848C211.374 368.101 211.763 368.227 212.152 368.227H216.434C216.824 368.227 217.213 368.101 217.472 367.848C217.732 367.596 217.862 367.217 217.862 366.838V363.933ZM219.938 372.522C219.938 372.143 219.808 371.764 219.548 371.511C219.289 371.259 218.9 371.132 218.51 371.132H212.282C211.893 371.132 211.504 371.259 211.244 371.511C210.984 371.764 210.855 372.143 210.855 372.522V375.427C210.855 375.806 210.984 376.185 211.244 376.437C211.504 376.69 211.893 376.816 212.282 376.816H218.51C218.9 376.816 219.289 376.69 219.548 376.437C219.808 376.185 219.938 375.806 219.938 375.427V372.522ZM215.396 381.237C215.396 380.479 214.747 379.848 213.969 379.848H212.282C211.504 379.848 210.855 380.479 210.855 381.237V384.142C210.855 384.9 211.504 385.532 212.282 385.532H213.969C214.747 385.532 215.396 384.9 215.396 384.142V381.237Z" fill="#3376BD"/>
</g>
<g clip-path="url(#clip11_16_1849)">
<path d="M219.289 320.125C224.305 320.125 228.372 316.063 228.372 311.053C228.372 306.042 224.305 301.98 219.289 301.98C214.273 301.98 210.206 306.042 210.206 311.053C210.206 316.063 214.273 320.125 219.289 320.125Z" fill="#142664"/>
<path d="M219.165 314.905L223.022 311.053C224.017 310.058 224.017 308.319 223.022 307.324C222.026 306.33 220.284 306.33 219.289 307.324L215.432 311.177C214.436 312.171 214.436 313.911 215.432 314.905C216.552 315.9 218.169 315.9 219.165 314.905Z" fill="#3376BD"/>
</g>
<g clip-path="url(#clip12_16_1849)">
<path d="M151.508 313.573C151.918 313.164 151.918 312.495 151.508 312.086L145.591 306.175C145.181 305.766 144.511 305.766 144.102 306.175L137.849 312.421C137.44 312.829 137.44 313.499 137.849 313.908L143.767 319.818C144.176 320.227 144.846 320.227 145.256 319.818C146.744 318.369 150.057 315.06 151.508 313.573Z" fill="#3376BD"/>
</g>
<g clip-path="url(#clip13_16_1849)">
<path d="M131.054 307.164C131.054 306.458 130.41 305.868 129.637 305.868H114.306C113.533 305.868 112.888 306.458 112.888 307.164V309.757C112.888 310.464 113.533 311.053 114.306 311.053H129.637C130.41 311.053 131.054 310.464 131.054 309.757V307.164Z" fill="#142664"/>
</g>
<g clip-path="url(#clip14_16_1849)">
<path d="M204.367 336.974C212.609 336.974 219.29 330.301 219.29 322.069C219.29 313.837 212.609 307.164 204.367 307.164C196.126 307.164 189.445 313.837 189.445 322.069C189.445 330.301 196.126 336.974 204.367 336.974Z" fill="black"/>
</g>
<g clip-path="url(#clip15_16_1849)">
<path d="M204.326 312.349C209.022 312.349 212.801 316.457 212.801 321.562C212.801 324.053 211.885 326.418 210.281 328.037L206.845 324.302C207.533 323.554 207.876 322.558 207.876 321.562C207.876 319.321 206.273 317.578 204.211 317.578V312.349H204.326Z" fill="#3376BD"/>
<path d="M198.256 315.088L201.691 318.699C201.004 319.421 200.661 320.383 200.661 321.466C200.661 323.512 202.264 325.318 204.326 325.318C205.357 325.318 206.295 324.829 206.929 324.206L210.428 327.882C208.939 329.448 206.731 330.492 204.44 330.492C199.744 330.492 195.965 326.52 195.965 321.586C195.736 318.939 196.767 316.653 198.256 315.088Z" fill="#08D4F8"/>
<path d="M204.211 317.578C203.164 317.628 202.092 318.263 201.634 318.761L198.255 315.088C199.744 313.469 201.921 312.349 204.211 312.349V317.578Z" fill="#142664"/>
</g>
<g clip-path="url(#clip16_16_1849)">
<path d="M154.411 394C155.844 394 157.006 392.84 157.006 391.408C157.006 389.976 155.844 388.816 154.411 388.816C152.977 388.816 151.815 389.976 151.815 391.408C151.815 392.84 152.977 394 154.411 394Z" fill="#142664"/>
</g>
<g clip-path="url(#clip17_16_1849)">
<path d="M129.757 395.296C131.19 395.296 132.352 394.136 132.352 392.704C132.352 391.272 131.19 390.112 129.757 390.112C128.324 390.112 127.162 391.272 127.162 392.704C127.162 394.136 128.324 395.296 129.757 395.296Z" fill="#142664"/>
</g>
<g clip-path="url(#clip18_16_1849)">
<path d="M142.733 395.296C144.166 395.296 145.328 394.136 145.328 392.704C145.328 391.272 144.166 390.112 142.733 390.112C141.299 390.112 140.137 391.272 140.137 392.704C140.137 394.136 141.299 395.296 142.733 395.296Z" fill="#142664"/>
</g>
<defs>
<clipPath id="clip0_16_1849">
<rect width="211.504" height="278.651" fill="white" transform="translate(46.7124 281.243)"/>
</clipPath>
<clipPath id="clip1_16_1849">
<rect width="102.508" height="186.632" fill="white" transform="translate(28.5465 374.559)"/>
</clipPath>
<clipPath id="clip2_16_1849">
<rect width="50.6052" height="40.1776" fill="white" transform="translate(105.103 298.092)"/>
</clipPath>
<clipPath id="clip3_16_1849">
<rect width="25.9514" height="14.2566" fill="white" transform="translate(108.996 317.533)"/>
</clipPath>
<clipPath id="clip4_16_1849">
<rect width="55.7303" height="80.4492" fill="white" transform="translate(121.323 379.095) rotate(-90)"/>
</clipPath>
<clipPath id="clip5_16_1849">
<rect width="85.6395" height="18.1447" fill="white" transform="translate(193.338 536.566)"/>
</clipPath>
<clipPath id="clip6_16_1849">
<rect width="80.4492" height="12.9605" fill="white" transform="translate(197.23 519.717)"/>
</clipPath>
<clipPath id="clip7_16_1849">
<rect width="615.047" height="527.493" fill="white" transform="translate(260.811 32.4013)"/>
</clipPath>
<clipPath id="clip8_16_1849">
<rect width="883.644" height="5.18421" fill="white" transform="translate(15.5708 558.599)"/>
</clipPath>
<clipPath id="clip9_16_1849">
<rect width="62.2833" height="42.7697" fill="white" transform="translate(125.864 330.493)"/>
</clipPath>
<clipPath id="clip10_16_1849">
<rect width="18.166" height="29.8092" fill="white" transform="translate(206.313 359.007)"/>
</clipPath>
<clipPath id="clip11_16_1849">
<rect width="18.166" height="18.1447" fill="white" transform="translate(210.206 301.98)"/>
</clipPath>
<clipPath id="clip12_16_1849">
<rect width="14.2732" height="14.2566" fill="white" transform="translate(137.542 305.868)"/>
</clipPath>
<clipPath id="clip13_16_1849">
<rect width="18.166" height="5.18421" fill="white" transform="translate(112.888 305.868)"/>
</clipPath>
<clipPath id="clip14_16_1849">
<rect width="29.8441" height="29.8092" fill="white" transform="translate(189.445 307.164)"/>
</clipPath>
<clipPath id="clip15_16_1849">
<rect width="16.8684" height="18.1447" fill="white" transform="translate(195.933 312.349)"/>
</clipPath>
<clipPath id="clip16_16_1849">
<rect width="5.19027" height="5.18421" fill="white" transform="translate(151.815 388.816)"/>
</clipPath>
<clipPath id="clip17_16_1849">
<rect width="5.19027" height="5.18421" fill="white" transform="translate(127.162 390.112)"/>
</clipPath>
<clipPath id="clip18_16_1849">
<rect width="5.19027" height="5.18421" fill="white" transform="translate(140.137 390.112)"/>
</clipPath>
</defs>
</svg>
